<svg width="188" height="63" viewBox="0 0 188 63" fill="none" xmlns="http://www.w3.org/2000/svg">
<path d="M13.193 61.5825H11.7794C10.8371 61.5825 9.73767 61.425 8.79532 61.2675C7.85296 61.11 7.06766 60.795 6.12531 60.48C5.34001 60.0075 4.55472 59.535 3.92648 58.905C3.29824 58.275 2.67 57.4875 2.35588 56.7C1.88471 55.9125 1.72765 54.9675 1.57059 54.0225C1.41353 53.0775 1.25647 52.1325 1.25647 51.03V13.23V11.8125C1.25647 10.8675 1.41353 9.76498 1.57059 8.81998C1.72765 8.03248 2.04177 7.08748 2.51294 6.29998C2.98412 5.51248 3.4553 4.72498 4.08354 4.09498C4.71177 3.46498 5.49707 2.99248 6.28237 2.51998C7.06766 2.04748 8.01002 1.88998 8.95238 1.73248C9.89473 1.57498 10.8371 1.41748 11.9365 1.41748H176.221C177.163 1.41748 178.105 1.57498 179.205 1.73248C180.147 1.88998 180.932 2.20498 181.875 2.51998C183.445 3.30748 184.859 4.72498 185.644 6.29998C186.115 7.08748 186.272 8.03248 186.429 8.81998C186.586 9.76498 186.744 10.8675 186.744 11.8125V51.03C186.744 51.975 186.586 52.92 186.429 54.0225C186.272 54.9675 185.958 55.755 185.644 56.7C185.173 57.4875 184.702 58.275 184.074 58.905C183.445 59.535 182.66 60.165 181.875 60.48C181.089 60.9525 180.147 61.2675 179.205 61.2675C178.262 61.425 177.32 61.5825 176.221 61.5825H13.193Z" fill="black"/>
<path d="M38.9507 31.9725C38.9507 29.295 40.3643 26.775 42.7202 25.3575C41.3066 23.31 38.9507 22.05 36.4378 21.8925C33.7678 21.5775 31.2548 23.4675 29.8413 23.4675C28.4278 23.4675 26.386 21.8925 24.1872 21.8925C21.203 22.05 18.533 23.625 17.1195 26.145C14.1354 31.3425 16.3342 39.2175 19.3183 43.47C20.7319 45.5175 22.4595 47.88 24.6583 47.88C26.8572 47.7225 27.6425 46.4625 30.3125 46.4625C32.9825 46.4625 33.6107 47.88 35.9666 47.88C38.3225 47.88 39.736 45.8325 41.1496 43.6275C42.249 42.21 43.0343 40.4775 43.5055 38.745C40.6784 37.8 38.9507 34.965 38.9507 31.9725ZM34.5531 19.215C35.8095 17.64 36.4378 15.75 36.2807 13.7025C34.396 13.86 32.5113 14.805 31.2548 16.38C29.9984 17.7975 29.3701 19.6875 29.5272 21.735C31.5689 21.735 33.2966 20.79 34.5531 19.215ZM66.4361 42.6825H59.0543L57.3267 48.0375H54.1855L61.2532 28.5075H64.3943L71.462 48.0375H68.3208L66.4361 42.6825ZM59.8396 40.32H65.8079L62.8237 31.6575H62.6667L59.8396 40.32ZM86.6968 40.95C86.6968 45.36 84.3409 48.195 80.7285 48.195C78.8438 48.3525 77.1161 47.25 76.3308 45.675V52.7625H73.3467V33.8625H76.1738V36.225C77.1161 34.65 78.8438 33.705 80.7285 33.705C84.1838 33.5475 86.6968 36.54 86.6968 40.95ZM83.5556 40.95C83.5556 38.115 82.142 36.225 79.7862 36.225C77.5873 36.225 76.0167 38.115 76.0167 40.95C76.0167 43.785 77.5873 45.675 79.7862 45.675C82.142 45.675 83.5556 43.785 83.5556 40.95ZM102.246 40.95C102.246 45.36 99.8897 48.195 96.2774 48.195C94.3927 48.3525 92.665 47.25 91.8797 45.675V52.7625H88.8956V33.8625H91.7227V36.225C92.665 34.65 94.3927 33.705 96.2774 33.705C99.8897 33.5475 102.246 36.54 102.246 40.95ZM99.2615 40.95C99.2615 38.115 97.848 36.225 95.4921 36.225C93.2933 36.225 91.7227 38.115 91.7227 40.95C91.7227 43.785 93.2933 45.675 95.4921 45.675C97.848 45.675 99.2615 43.785 99.2615 40.95ZM112.612 42.525C112.769 44.415 114.653 45.675 117.323 45.675C119.836 45.675 121.564 44.415 121.564 42.6825C121.564 41.1075 120.465 40.32 117.952 39.69L115.439 39.06C111.826 38.2725 110.256 36.54 110.256 33.8625C110.256 30.555 113.24 28.1925 117.323 28.1925C121.407 28.1925 124.234 30.555 124.391 33.8625H121.407C121.25 31.9725 119.679 30.7125 117.323 30.7125C114.967 30.7125 113.397 31.9725 113.397 33.705C113.397 35.1225 114.496 35.91 117.009 36.54L119.208 37.0125C123.135 37.9575 124.862 39.5325 124.862 42.3675C124.862 45.99 122.035 48.3525 117.323 48.3525C112.926 48.3525 110.099 46.1475 109.942 42.525H112.612ZM130.83 30.3975V33.705H133.5V36.0675H130.83V43.9425C130.83 45.2025 131.302 45.675 132.558 45.675H133.5V48.0375C133.029 48.195 132.401 48.195 131.93 48.195C129.103 48.195 128.003 47.0925 128.003 44.415V36.225H125.962V33.8625H128.003V30.555H130.83V30.3975ZM135.228 40.95C135.228 36.54 137.898 33.705 141.982 33.705C146.065 33.705 148.735 36.54 148.735 40.95C148.735 45.5175 146.065 48.195 141.982 48.195C137.741 48.195 135.228 45.36 135.228 40.95ZM145.751 40.95C145.751 37.8 144.338 36.0675 141.982 36.0675C139.626 36.0675 138.212 37.8 138.212 40.95C138.212 44.1 139.626 45.8325 141.982 45.8325C144.338 45.8325 145.751 43.9425 145.751 40.95ZM151.091 33.705H153.918V36.225C154.232 34.65 155.803 33.5475 157.373 33.705C157.688 33.705 158.002 33.705 158.316 33.8625V36.54C157.845 36.3825 157.373 36.3825 157.059 36.3825C155.489 36.3825 154.075 37.6425 154.075 39.2175V48.195H151.091V33.705ZM171.823 43.785C171.509 46.305 168.996 48.195 165.698 48.195C161.614 48.195 158.944 45.36 158.944 40.95C158.944 36.54 161.457 33.5475 165.541 33.5475C169.467 33.5475 171.98 36.225 171.98 40.635V41.58H161.928V41.7375C161.771 43.785 163.185 45.5175 165.226 45.8325H165.698C167.111 45.99 168.525 45.2025 168.996 43.785H171.823ZM161.928 39.5325H168.996C169.153 37.6425 167.582 36.0675 165.698 35.91H165.383C163.499 35.91 161.928 37.485 161.928 39.5325Z" fill="white"/>
<path d="M59.3684 13.7025C61.7243 13.545 63.609 15.2775 63.7661 17.4825V18.27C63.7661 21.2625 62.1955 22.995 59.3684 22.995H55.9131V13.545L59.3684 13.7025ZM57.4837 21.8925H59.2113C60.7819 22.05 62.1955 20.79 62.3525 19.0575V18.4275C62.5096 16.8525 61.4102 15.2775 59.8396 15.12H57.4837V21.8925ZM65.4937 19.53C65.3366 17.64 66.7502 16.065 68.4778 15.9075C70.3625 15.75 71.9331 17.1675 72.0902 18.9V19.53C72.2473 21.42 70.9908 22.995 69.1061 23.1525C67.2214 23.31 65.6508 22.05 65.4937 20.16V19.53ZM70.6767 19.53C70.6767 17.955 70.0484 17.1675 68.792 17.1675C67.5355 17.1675 66.9072 18.1125 66.9072 19.53C66.9072 21.105 67.5355 22.05 68.792 22.05C70.0484 22.05 70.6767 21.105 70.6767 19.53ZM81.0426 23.1525H79.629L78.2155 17.955H78.0585L76.6449 23.1525H75.2314L73.3467 16.065H74.7602L76.0167 21.42H76.1737L77.5873 16.065H79.0008L80.4143 21.42H80.5714L81.8279 16.065H83.2414L81.0426 23.1525ZM84.6549 16.065H86.0685V17.1675H86.2255C86.5397 16.38 87.482 15.9075 88.2673 15.9075C89.5238 15.75 90.6232 16.695 90.7803 18.1125V23.1525H89.3667V18.9C89.3667 17.7975 88.8955 17.1675 87.7961 17.1675C86.8538 17.1675 86.0685 17.7975 86.0685 18.7425V23.1525H84.6549V16.065ZM92.822 13.23H94.2356V23.1525H92.822V13.23ZM96.1203 19.53C95.9632 17.64 97.2197 16.065 99.1044 15.9075C100.989 15.75 102.56 17.01 102.717 18.9V19.53C102.874 21.42 101.617 22.995 99.7326 23.1525C97.8479 23.31 96.2773 22.05 96.1203 20.16V19.53ZM101.46 19.53C101.46 17.955 100.832 17.1675 99.5756 17.1675C98.3191 17.1675 97.6909 18.1125 97.6909 19.53C97.6909 21.105 98.3191 22.05 99.5756 22.05C100.675 22.05 101.46 21.105 101.46 19.53ZM104.287 21.105C104.287 19.845 105.23 19.0575 106.957 19.0575L108.842 18.9V18.27C108.842 17.4825 108.371 17.1675 107.429 17.1675C106.643 17.1675 106.172 17.4825 106.015 17.955H104.601C104.759 16.695 105.858 15.9075 107.429 15.9075C109.156 15.9075 110.256 16.8525 110.256 18.27V23.1525H108.842V22.2075H108.685C108.214 22.995 107.429 23.31 106.486 23.31C105.387 23.4675 104.287 22.5225 104.13 21.42C104.287 21.2625 104.287 21.2625 104.287 21.105ZM108.842 20.475V19.845L107.114 20.0025C106.172 20.0025 105.701 20.475 105.701 20.9475C105.701 21.5775 106.329 21.8925 106.957 21.8925C107.9 22.2075 108.685 21.5775 108.842 20.475C108.842 20.6325 108.842 20.6325 108.842 20.475ZM111.983 19.53C111.983 17.325 113.083 15.9075 114.967 15.9075C115.91 15.9075 116.695 16.38 117.166 17.1675H117.323V13.23H118.737V23.1525H117.323V22.05H117.166C116.695 22.8375 115.91 23.31 114.967 23.31C113.24 23.31 111.983 21.8925 111.983 19.53ZM113.554 19.53C113.554 21.105 114.182 21.8925 115.439 21.8925C116.695 21.8925 117.323 20.9475 117.323 19.53C117.323 18.1125 116.538 17.1675 115.439 17.1675C114.182 17.1675 113.554 18.1125 113.554 19.53ZM124.391 19.53C124.234 17.64 125.49 16.065 127.375 15.9075C129.26 15.75 130.83 17.01 130.987 18.9V19.53C131.145 21.42 129.888 22.995 128.003 23.1525C126.119 23.31 124.548 22.05 124.391 20.16V19.53ZM129.731 19.53C129.731 17.955 129.103 17.1675 127.846 17.1675C126.59 17.1675 125.962 18.1125 125.962 19.53C125.962 21.105 126.59 22.05 127.846 22.05C128.946 22.05 129.731 21.105 129.731 19.53ZM133.029 16.065H134.443V17.1675H134.6C134.914 16.38 135.856 15.9075 136.642 15.9075C137.898 15.75 138.997 16.695 139.155 18.1125V23.1525H137.741V18.9C137.741 17.7975 137.27 17.1675 136.17 17.1675C135.228 17.1675 134.443 17.7975 134.443 18.7425V23.1525H133.029V16.065ZM146.85 14.3325V16.065H148.421V17.325H146.85V20.9475C146.85 21.735 147.165 22.05 147.793 22.05H148.264V23.1525H147.479C145.908 23.1525 145.28 22.68 145.28 21.2625V17.325H144.18V16.2225H145.28V14.3325H146.85ZM150.306 13.23H151.719V17.1675H151.876C152.19 16.38 153.133 15.75 154.075 15.9075C155.332 15.9075 156.431 16.8525 156.588 18.1125V23.1525H155.175V18.9C155.175 17.7975 154.703 17.1675 153.604 17.1675C152.662 17.1675 151.876 17.7975 151.876 18.7425V23.1525H150.463V13.23H150.306ZM164.598 21.2625C164.284 22.5225 162.87 23.4675 161.614 23.31C159.886 23.31 158.316 21.8925 158.316 20.16V19.6875C158.002 17.955 159.258 16.2225 161.143 16.065H161.614C163.656 16.065 164.755 17.4825 164.755 19.6875V20.16H159.729V20.3175C159.572 21.42 160.358 22.2075 161.457 22.365H161.614C162.242 22.5225 163.028 22.05 163.342 21.5775H164.598V21.2625ZM159.572 18.9H163.185C163.185 17.955 162.556 17.1675 161.614 17.01H161.457C160.515 17.1675 159.572 17.955 159.572 18.9Z" fill="white"/>
</svg>
