<svg width="189" height="63" viewBox="0 0 189 63" fill="none" xmlns="http://www.w3.org/2000/svg">
<g clip-path="url(#clip0_1887_15)">
<path d="M182 63H7C3.08 63 0 59.535 0 55.125V7.875C0 3.465 3.08 0 7 0H182C185.92 0 189 3.465 189 7.875V55.125C189 59.535 185.92 63 182 63Z" fill="black"/>
<path d="M66.36 16.0651C66.36 17.3251 66.08 18.4276 65.38 19.2151C64.54 20.1601 63.56 20.6326 62.3 20.6326C61.04 20.6326 60.06 20.1601 59.22 19.2151C58.38 18.2701 57.96 17.1676 57.96 15.7501C57.96 14.3326 58.38 13.2301 59.22 12.2851C60.06 11.3401 61.04 10.8676 62.3 10.8676C62.86 10.8676 63.42 11.0251 63.98 11.3401C64.54 11.6551 64.96 11.9701 65.24 12.4426L64.54 13.2301C63.98 12.4426 63.28 12.1276 62.3 12.1276C61.46 12.1276 60.62 12.4426 60.06 13.2301C59.36 13.8601 59.08 14.8051 59.08 15.9076C59.08 17.0101 59.36 17.9551 60.06 18.5851C60.76 19.2151 61.46 19.6876 62.3 19.6876C63.28 19.6876 63.98 19.3726 64.68 18.5851C65.1 18.1126 65.38 17.4826 65.38 16.6951H62.3V15.4351H66.36V16.0651ZM72.8 12.1276H69.02V15.1201H72.52V16.2226H69.02V19.2151H72.8V20.4751H67.9V11.0251H72.8V12.1276ZM77.42 20.4751H76.3V12.1276H73.92V11.0251H79.8V12.1276H77.42V20.4751ZM83.86 20.4751V11.0251H84.98V20.4751H83.86ZM89.74 20.4751H88.62V12.1276H86.24V11.0251H91.98V12.1276H89.6L89.74 20.4751ZM103.04 19.2151C102.2 20.1601 101.22 20.6326 99.96 20.6326C98.7 20.6326 97.72 20.1601 96.88 19.2151C96.04 18.2701 95.62 17.1676 95.62 15.7501C95.62 14.3326 96.04 13.2301 96.88 12.2851C97.72 11.3401 98.7 10.8676 99.96 10.8676C101.22 10.8676 102.2 11.3401 103.04 12.2851C103.88 13.2301 104.3 14.3326 104.3 15.7501C104.3 17.1676 103.88 18.2701 103.04 19.2151ZM97.72 18.4276C98.28 19.0576 99.12 19.5301 99.96 19.5301C100.8 19.5301 101.64 19.2151 102.2 18.4276C102.76 17.7976 103.18 16.8526 103.18 15.7501C103.18 14.6476 102.9 13.7026 102.2 13.0726C101.64 12.4426 100.8 11.9701 99.96 11.9701C99.12 11.9701 98.28 12.2851 97.72 13.0726C97.16 13.7026 96.74 14.6476 96.74 15.7501C96.74 16.8526 97.02 17.7976 97.72 18.4276ZM105.84 20.4751V11.0251H107.1L111.16 18.4276V11.0251H112.28V20.4751H111.16L106.82 12.7576V20.4751H105.84Z" fill="white" stroke="white" stroke-width="0.2" stroke-miterlimit="10"/>
<path d="M95.34 34.335C91.98 34.335 89.32 37.17 89.32 41.1075C89.32 44.8875 91.98 47.88 95.34 47.88C98.7 47.88 101.36 45.045 101.36 41.1075C101.36 37.0125 98.7 34.335 95.34 34.335ZM95.34 45.045C93.52 45.045 91.98 43.3125 91.98 40.95C91.98 38.5875 93.52 36.855 95.34 36.855C97.16 36.855 98.7 38.43 98.7 40.95C98.7 43.3125 97.16 45.045 95.34 45.045ZM82.32 34.335C78.96 34.335 76.3 37.17 76.3 41.1075C76.3 44.8875 78.96 47.88 82.32 47.88C85.68 47.88 88.34 45.045 88.34 41.1075C88.34 37.0125 85.68 34.335 82.32 34.335ZM82.32 45.045C80.5 45.045 78.96 43.3125 78.96 40.95C78.96 38.5875 80.5 36.855 82.32 36.855C84.14 36.855 85.68 38.43 85.68 40.95C85.68 43.3125 84.14 45.045 82.32 45.045ZM66.78 36.3825V39.2175H72.8C72.66 40.7925 72.1 42.0525 71.4 42.84C70.56 43.785 69.16 44.8875 66.78 44.8875C63 44.8875 60.2 41.58 60.2 37.3275C60.2 33.075 63.14 29.7675 66.78 29.7675C68.74 29.7675 70.28 30.7125 71.4 31.815L73.22 29.7675C71.68 28.1925 69.72 26.9325 66.92 26.9325C61.88 26.9325 57.54 31.6575 57.54 37.3275C57.54 42.9975 61.88 47.7225 66.92 47.7225C69.72 47.7225 71.68 46.7775 73.36 44.73C75.04 42.84 75.6 40.1625 75.6 38.115C75.6 37.485 75.6 36.855 75.46 36.3825H66.78ZM130.34 38.5875C129.78 37.0125 128.38 34.335 125.3 34.335C122.22 34.335 119.7 37.0125 119.7 41.1075C119.7 44.8875 122.22 47.88 125.58 47.88C128.24 47.88 129.92 45.99 130.48 44.8875L128.52 43.3125C127.82 44.415 126.98 45.2025 125.58 45.2025C124.18 45.2025 123.34 44.5725 122.64 43.155L130.62 39.375L130.34 38.5875ZM122.22 40.7925C122.22 38.2725 124.04 36.855 125.3 36.855C126.28 36.855 127.26 37.485 127.54 38.2725L122.22 40.7925ZM115.64 47.25H118.3V27.5625H115.64V47.25ZM111.44 35.7525C110.74 34.965 109.62 34.1775 108.22 34.1775C105.28 34.1775 102.48 37.17 102.48 40.95C102.48 44.73 105.14 47.565 108.22 47.565C109.62 47.565 110.74 46.7775 111.3 45.99H111.44V46.935C111.44 49.455 110.18 50.8725 108.22 50.8725C106.68 50.8725 105.56 49.6125 105.28 48.51L103.04 49.6125C103.74 51.345 105.42 53.55 108.36 53.55C111.44 53.55 113.96 51.5025 113.96 46.62V34.65H111.44V35.7525ZM108.36 45.045C106.54 45.045 105 43.3125 105 40.95C105 38.5875 106.54 36.855 108.36 36.855C110.18 36.855 111.58 38.5875 111.58 40.95C111.58 43.3125 110.18 45.045 108.36 45.045ZM142.52 27.5625H136.22V47.25H138.88V39.8475H142.52C145.46 39.8475 148.26 37.485 148.26 33.705C148.26 29.925 145.46 27.5625 142.52 27.5625ZM142.66 37.0125H138.88V30.24H142.66C144.62 30.24 145.74 32.13 145.74 33.5475C145.6 35.28 144.48 37.0125 142.66 37.0125ZM158.76 34.1775C156.8 34.1775 154.84 35.1225 154.14 37.17L156.52 38.2725C157.08 37.17 157.92 36.855 158.9 36.855C160.3 36.855 161.56 37.8 161.7 39.375V39.5325C161.28 39.2175 160.16 38.745 159.04 38.745C156.52 38.745 154 40.32 154 43.155C154 45.8325 156.1 47.565 158.34 47.565C160.16 47.565 161 46.62 161.7 45.675H161.84V47.25H164.36V39.69C164.08 36.225 161.7 34.1775 158.76 34.1775ZM158.48 45.045C157.64 45.045 156.38 44.5725 156.38 43.3125C156.38 41.7375 157.92 41.265 159.18 41.265C160.3 41.265 160.86 41.58 161.56 41.895C161.28 43.785 159.88 45.045 158.48 45.045ZM173.18 34.65L170.24 43.155H170.1L167.02 34.65H164.22L168.84 46.62L166.18 53.235H168.84L175.98 34.65H173.18ZM149.66 47.25H152.32V27.5625H149.66V47.25Z" fill="white"/>
<path d="M14.56 11.8125C14.14 12.285 14 13.0725 14 14.0175V48.825C14 49.77 14.28 50.5575 14.7 51.03L14.84 51.1875L32.2 31.6575V31.3425L14.56 11.8125Z" fill="url(#paint0_linear_1887_15)"/>
<path d="M37.8001 38.2725L32.0601 31.815V31.3425L37.8001 24.885L37.9401 25.0425L44.8001 29.4525C46.7601 30.7125 46.7601 32.76 44.8001 34.02L37.8001 38.2725Z" fill="url(#paint1_linear_1887_15)"/>
<path d="M37.9401 38.115L32.0601 31.5L14.5601 51.1875C15.2601 51.975 16.2401 51.975 17.5001 51.345L37.9401 38.115Z" fill="url(#paint2_linear_1887_15)"/>
<path d="M37.9401 24.885L17.5001 11.8125C16.2401 11.025 15.2601 11.1825 14.5601 11.97L32.0601 31.5L37.9401 24.885Z" fill="url(#paint3_linear_1887_15)"/>
<path opacity="0.2" d="M37.8001 37.9575L17.5001 50.8725C16.3801 51.66 15.4001 51.5025 14.7001 50.8725L14.5601 51.03L14.7001 51.1875C15.4001 51.8175 16.3801 51.975 17.5001 51.1875L37.8001 37.9575Z" fill="black"/>
<path opacity="0.12" d="M14.56 50.8725C14.14 50.4 14 49.6125 14 48.6675V48.825C14 49.77 14.28 50.5575 14.7 51.03V50.8725H14.56ZM44.8 33.5475L37.8 37.9575L37.94 38.115L44.8 33.705C45.78 33.075 46.2 32.2875 46.2 31.5C46.2 32.2875 45.64 32.9175 44.8 33.5475Z" fill="black"/>
<path opacity="0.25" d="M17.5 11.97L44.8 29.4525C45.64 30.0825 46.2 30.7125 46.2 31.5C46.2 30.7125 45.78 29.925 44.8 29.295L17.5 11.97C15.54 10.5525 14 11.4975 14 14.0175V14.175C14 11.8125 15.54 10.71 17.5 11.97Z" fill="white"/>
</g>
<defs>
<linearGradient id="paint0_linear_1887_15" x1="30.513" y1="13.7104" x2="4.26226" y2="37.043" gradientUnits="userSpaceOnUse">
<stop stop-color="#00A0FF"/>
<stop offset="0.007" stop-color="#00A1FF"/>
<stop offset="0.26" stop-color="#00BEFF"/>
<stop offset="0.512" stop-color="#00D2FF"/>
<stop offset="0.76" stop-color="#00DFFF"/>
<stop offset="1" stop-color="#00E3FF"/>
</linearGradient>
<linearGradient id="paint1_linear_1887_15" x1="47.3677" y1="31.5788" x2="13.4919" y2="31.5788" gradientUnits="userSpaceOnUse">
<stop stop-color="#FFE000"/>
<stop offset="0.409" stop-color="#FFBD00"/>
<stop offset="0.775" stop-color="#FFA500"/>
<stop offset="1" stop-color="#FF9C00"/>
</linearGradient>
<linearGradient id="paint2_linear_1887_15" x1="34.7425" y1="35.0989" x2="-0.854188" y2="66.7403" gradientUnits="userSpaceOnUse">
<stop stop-color="#FF3A44"/>
<stop offset="1" stop-color="#C31162"/>
</linearGradient>
<linearGradient id="paint3_linear_1887_15" x1="10.1655" y1="0.333943" x2="26.0618" y2="14.464" gradientUnits="userSpaceOnUse">
<stop stop-color="#32A071"/>
<stop offset="0.069" stop-color="#2DA771"/>
<stop offset="0.476" stop-color="#15CF74"/>
<stop offset="0.801" stop-color="#06E775"/>
<stop offset="1" stop-color="#00F076"/>
</linearGradient>
<clipPath id="clip0_1887_15">
<rect width="189" height="63" fill="white"/>
</clipPath>
</defs>
</svg>
