<svg width="100" height="100" viewBox="0 0 100 100" fill="none" xmlns="http://www.w3.org/2000/svg">
<path d="M22.0907 2.734C18.3314 6.49323 17.8758 10.4803 18.3314 32.3522L18.6732 51.2622L21.8628 54.3379L24.9386 57.5276H50.0001H75.0616L78.1373 54.3379C81.327 51.2622 81.327 51.1483 81.6687 33.3774C82.2383 11.9612 81.4409 6.2654 77.9095 2.734C75.1755 1.90735e-05 74.9477 1.90735e-05 50.0001 1.90735e-05C24.9386 1.90735e-05 24.8246 1.90735e-05 22.0907 2.734ZM72.5554 25.2894C72.6694 34.6305 72.4415 42.1489 71.9859 42.1489C71.6441 42.1489 66.9736 38.048 61.8473 33.0357C55.8098 27.112 51.7088 23.9224 50.0001 23.9224C48.2913 23.9224 44.1904 27.112 38.1528 33.0357C33.0266 38.048 28.47 42.1489 28.0143 42.1489C26.989 42.1489 26.989 9.68288 28.0143 8.65763C28.47 8.31588 38.6085 8.08805 50.4557 8.20197L72.2137 8.54372L72.5554 25.2894ZM59.2273 42.1489L67.6571 50.0091H50.0001H32.3431L40.7729 42.1489C45.4434 37.7062 49.5444 34.1748 50.0001 34.1748C50.4557 34.1748 54.5567 37.7062 59.2273 42.1489Z" fill="white"/>
<path d="M58.8854 14.9229C53.987 17.7708 58.0879 26.2006 63.3281 24.264C67.543 22.6692 68.5682 16.8595 64.9229 14.809C62.1889 13.442 61.3915 13.442 58.8854 14.9229Z" fill="white"/>
<path d="M5.57272 48.1864C-0.00916648 51.0343 2.15524 60.3754 8.42061 60.3754C14.2303 60.3754 16.8504 51.8317 12.1798 48.5282C9.10411 46.3638 9.21803 46.3638 5.57272 48.1864Z" fill="white"/>
<path d="M87.8202 48.5282C83.0357 51.8317 85.7697 60.3754 91.8073 60.3754C94.883 60.3754 97.8448 56.844 97.8448 53.3126C97.8448 48.3003 92.0351 45.5663 87.8202 48.5282Z" fill="white"/>
<path d="M5.23102 62.312C4.77536 62.6538 4.43361 69.6026 4.43361 77.5768C4.43361 91.2467 4.31969 92.0441 2.04137 92.6137C0.218719 93.0693 -0.236945 93.9807 0.104803 96.4868C0.446551 99.6765 0.560466 99.6765 8.42067 99.6765C16.2809 99.6765 16.3948 99.6765 16.7365 96.4868C17.0783 93.9807 16.6226 93.0693 14.8 92.6137C12.6356 92.0441 12.4077 91.1328 12.4077 82.9308V73.9314L15.5974 76.0958C24.3689 82.3612 36.8997 85.8926 50.5696 85.7787C63.3282 85.7787 72.5554 83.2726 82.2382 77.4628L87.5923 74.1593V83.0447C87.5923 91.1328 87.3644 92.0441 85.2 92.6137C83.3774 93.0693 82.9217 93.9807 83.2635 96.4868C83.6052 99.6765 83.7191 99.6765 91.5793 99.6765C99.4395 99.6765 99.5534 99.6765 99.8952 96.4868C100.237 93.9807 99.7813 93.0693 97.9586 92.6137C95.7942 92.0441 95.5664 91.0188 95.3386 77.0072C94.9968 62.6538 94.8829 62.0842 92.4907 61.7424C91.0098 61.5146 87.934 62.9955 84.6305 65.5017C65.0369 80.4247 39.9754 81.6777 19.5844 68.4635C15.8252 66.0712 12.2938 63.4512 11.9521 62.7677C11.0407 61.4007 6.37018 61.0589 5.23102 62.312Z" fill="white"/>
</svg>
