<svg width="100" height="100" viewBox="0 0 100 100" fill="none" xmlns="http://www.w3.org/2000/svg">
    <path d="M47.4218 0.37381C47.1093 0.686317 46.8749 2.24886 46.8749 3.88954C46.8749 6.38962 46.4843 7.09277 44.6092 8.03029C41.406 9.74909 39.5309 13.0304 39.5309 17.2493C39.4528 20.8432 39.2965 20.9994 36.3277 22.3276C33.9058 23.3433 29.9994 23.7339 18.5147 23.9683L3.90484 24.2808L3.35795 26.3121C2.73293 29.0466 4.76425 30.3747 9.92065 30.3747C12.1863 30.3747 14.0614 30.531 14.0614 30.7654C14.0614 30.9997 10.9363 37.4843 7.02994 45.2189C-0.939054 61.235 -1.40782 63.2664 2.02979 70.0634C4.52986 75.1417 8.59249 78.5012 13.9833 80.0637C25.7805 83.5795 37.8903 75.7667 39.5309 63.7351C39.9997 60.6881 39.4528 59.2037 32.5776 45.4533L25.0774 30.6091L30.1556 30.0622C32.9682 29.7497 37.109 28.8903 39.2965 28.0309C41.4841 27.1715 44.0623 26.7027 45.078 26.9371L46.8749 27.4059V55.063C46.8749 79.4387 46.7187 82.7201 45.703 82.7201C43.7498 82.7201 38.5153 85.6889 36.3277 87.9546C33.2026 91.236 31.015 95.9236 31.5619 98.033L32.0307 99.9081L50.2344 99.7518L68.3599 99.5175L68.2818 96.7049C68.2037 92.6422 64.2973 87.4077 59.5315 84.8295C57.4221 83.6576 55.0783 82.7201 54.3751 82.7201C53.2813 82.7201 53.1251 79.9856 53.1251 55.063V27.4059L54.922 26.9371C55.9377 26.7027 58.5159 27.1715 60.7035 28.0309C62.891 28.8903 67.0318 29.7497 69.8444 30.0622L74.9226 30.6091L67.5005 45.2971C59.5315 61.3132 59.1409 62.8757 61.7972 68.6571C66.1724 78.2668 76.0945 83.0326 86.0167 80.0637C91.4075 78.5012 95.4701 75.1417 97.9702 70.0634C101.408 63.2664 100.939 61.235 92.9701 45.2189C89.1418 37.4843 85.9386 30.9997 85.9386 30.7654C85.9386 30.531 87.8137 30.3747 90.0793 30.3747C95.0014 30.3747 97.1108 29.1247 96.7202 26.3902L96.4858 24.5152L81.6416 24.0464C70.3131 23.7339 66.0942 23.2651 63.6723 22.3276C60.6253 20.9994 60.5472 20.8432 60.4691 17.2493C60.4691 13.0304 58.594 9.74909 55.3908 8.10842C53.5939 7.17089 53.2032 6.31149 52.9688 3.65516C52.7345 0.53006 52.5782 0.295685 50.3906 0.0613022C49.0625 -0.0949554 47.7343 0.0613022 47.4218 0.37381ZM53.5939 15.218C54.8439 17.0931 54.8439 17.3275 53.3595 19.2806C51.25 22.1713 48.9843 22.3276 47.0312 19.8275C44.6092 16.7806 46.2499 13.1867 50.0781 13.1867C51.6407 13.1867 52.7345 13.8117 53.5939 15.218ZM31.1713 57.0943C31.2494 57.4849 26.1711 57.7193 19.921 57.7193C13.6708 57.7193 8.59249 57.5631 8.59249 57.3287C8.59249 57.0943 11.1707 51.8598 14.2177 45.6096L19.921 34.2811L25.5461 45.3752C28.6712 51.5472 31.1713 56.7818 31.1713 57.0943ZM86.5636 46.9377L92.1888 57.7193H80.4697H68.7506L74.3757 46.3908C77.5008 40.2188 80.2353 35.3749 80.5478 35.6874C80.7822 35.9999 83.5166 41.0782 86.5636 46.9377ZM32.812 65.2195C32.812 65.9227 31.3276 68.0321 29.4525 69.8291C23.3586 76.0011 16.0927 76.1574 10.2332 70.2978C8.59249 68.6571 7.10807 66.5477 6.87368 65.6883C6.40492 63.9695 6.48305 63.9695 19.6084 63.9695C31.3276 63.9695 32.812 64.1258 32.812 65.2195ZM93.1263 65.6883C92.8919 66.5477 91.4075 68.6571 89.7668 70.2978C83.9073 76.1574 76.6414 76.0011 70.5475 69.8291C64.8442 64.2039 65.1567 63.9695 80.3916 63.9695C93.517 63.9695 93.5951 63.9695 93.1263 65.6883ZM57.2658 91.0016C58.8284 92.0172 60.1566 93.0329 60.1566 93.2673C60.1566 93.5017 55.4689 93.6579 49.8437 93.6579L39.4528 93.5798L41.7966 91.7047C46.328 87.9546 52.0313 87.7202 57.2658 91.0016Z"
          fill="#00A6ED"/>
</svg>
