<svg width="100" height="100" viewBox="0 0 100 100" fill="none" xmlns="http://www.w3.org/2000/svg">
    <path d="M40.5175 1.00696C40.5175 1.64248 40.1203 3.94626 39.7231 6.01172C38.9287 9.66599 38.6903 9.90431 34.5594 11.4931L30.2696 13.2408L26.2976 10.5398C24.0733 9.03046 22.0078 7.83885 21.69 7.83885C20.5779 7.83885 8.74122 20.0727 8.74122 21.1849C8.74122 21.8204 9.85339 23.8859 11.2039 25.8719C13.5871 29.2878 13.6665 29.685 12.7133 32.386C10.9656 37.5496 9.85339 38.5824 5.88136 39.2179C-0.315012 40.0917 0.0027497 39.5357 0.0027497 49.9424C0.0027497 60.3491 -0.315012 59.793 5.88136 60.6669C9.85339 61.3024 10.9656 62.3351 12.7133 67.4988C13.6665 70.1998 13.5871 70.597 11.2039 74.0129C9.85339 75.9989 8.74122 78.1438 8.74122 78.6999C8.74122 79.8121 20.6573 92.0459 21.69 92.0459C22.0078 92.0459 24.0733 90.8543 26.2976 89.3449L30.2696 86.644L34.5594 88.3917C38.6903 89.9805 38.9287 90.2188 39.7231 93.8731C40.1203 95.9385 40.5175 98.2423 40.5175 98.8778C40.5175 99.8311 41.7885 99.99 47.9055 99.8311L55.214 99.5928V87.6767V75.7606L49.2559 75.284C41.7885 74.7279 37.0221 72.5035 32.1762 67.3399C26.9331 61.6996 25.106 57.2509 25.106 49.9424C25.106 42.6339 26.9331 38.1852 32.1762 32.5449C37.0221 27.3812 41.7885 25.1569 49.2559 24.6008L55.214 24.1242V12.2081V0.29199L47.9055 0.0536711C41.7885 -0.10521 40.5175 0.0536687 40.5175 1.00696ZM51.6392 11.7314V20.311L47.111 20.8671C37.6576 21.8998 28.5219 28.3345 24.1527 36.9936C22.0078 41.2039 21.8489 42.3161 21.8489 49.9424C21.8489 57.5687 22.0078 58.6809 24.1527 62.8912C28.5219 71.5502 37.6576 77.9849 47.111 79.0177L51.6392 79.5737V88.1533V96.8124H47.7466H43.9334L42.9801 92.1254L42.0268 87.5178L36.0688 84.9757L30.0313 82.4336L26.0593 84.9757L22.1667 87.5178L17.4797 82.9103L12.7927 78.3027L15.1759 74.8867C16.447 73.0596 17.4797 70.9942 17.4797 70.3586C17.4797 69.7231 16.447 66.7838 15.2554 63.7651L12.9516 58.2837L8.66178 57.4892L4.37198 56.6948V49.9424V43.1899L8.66178 42.3955L12.9516 41.6011L15.2554 36.1197C16.447 33.101 17.4797 30.1617 17.4797 29.5261C17.4797 28.8906 16.447 26.8252 15.1759 24.998L12.7927 21.5821L17.4797 16.9745L22.1667 12.367L26.0593 14.9091L30.0313 17.4512L36.0688 14.9091L42.0268 12.367L42.9801 7.75941L43.9334 3.07242H47.7466H51.6392V11.7314Z"
          fill="#00A6ED"/>
    <path d="M68.7983 8.07718C67.5273 9.03047 67.2095 10.3015 67.1301 15.8624C67.0506 20.2316 66.4946 23.4092 65.7001 25.0775C63.0786 30.1617 56.7234 33.5776 53.3074 31.7505C52.4336 31.2738 49.6531 30.8766 47.0316 30.8766C39.6436 30.8766 39.7231 30.7178 39.7231 50.1013C39.7231 64.8772 39.8819 66.466 41.153 67.6577C43.139 69.4054 51.4008 69.4848 53.7841 67.8165C55.3729 66.7044 56.0878 66.7044 60.5365 67.896C64.7469 68.9287 67.845 69.0876 79.3639 68.6109C95.0932 67.896 96.1259 67.4988 96.1259 61.9379C96.1259 60.1108 96.6026 58.4425 97.397 57.807C98.1914 57.1715 98.5886 55.7416 98.4297 53.5967C98.3502 51.7695 98.7475 49.3069 99.3035 48.1153C100.177 46.2881 100.257 45.4143 99.383 43.3488C98.8269 41.9189 98.4297 39.2179 98.5091 37.3113C98.668 31.7505 97.3175 30.8766 88.4996 30.8766H81.1911V23.8859C81.1911 15.9418 79.92 11.4137 77.0602 9.34823C74.2797 7.28278 70.6255 6.72669 68.7983 8.07718ZM75.7891 13.638C77.2985 15.7829 77.4574 16.8157 77.2985 27.8579C77.0602 41.1245 76.663 42.475 71.8171 45.3348C67.2095 48.0358 68.56 50.8162 73.5648 48.7508C75.1536 48.1153 76.5835 47.5592 76.663 47.5592C77.4574 47.5592 77.6957 50.3396 76.9807 52.0873C76.1863 54.2322 77.2985 58.6809 78.649 58.6809C78.9667 58.6809 79.2051 60.1108 79.2051 61.7791L79.0462 64.8772L74.4386 65.3539C71.3404 65.7511 67.5273 65.4333 62.7608 64.5595L55.6112 63.209V49.7835C55.6112 37.7085 55.7701 36.358 57.0411 35.9608C64.1908 33.6571 68.4011 30.0028 69.8311 24.7597C70.3077 23.0915 70.7049 19.2783 70.7049 16.339C70.7049 11.2548 70.7843 10.937 72.3732 11.1754C73.3264 11.3342 74.8358 12.4464 75.7891 13.638ZM94.3782 35.0076C95.6493 36.2786 95.5698 36.8347 94.0605 38.3441C92.6305 39.774 85.7986 40.0918 83.336 38.8207C81.6677 37.8674 81.2705 35.1664 82.8593 34.6104C84.8453 33.7365 93.4249 34.0543 94.3782 35.0076ZM51.6392 49.9424V65.0361H47.6671H43.6951V49.9424V34.8487H47.6671H51.6392V49.9424ZM95.1726 43.5077C95.8081 43.9049 96.1259 44.8582 95.967 45.6526C95.7287 47.0031 94.8549 47.162 88.3407 47.4003C82.3032 47.5592 80.9527 47.4003 80.5555 46.3676C79.4434 43.5077 80.7144 42.7927 87.5463 42.7927C91.2006 42.7927 94.6165 43.1105 95.1726 43.5077ZM94.4577 52.6434C94.9343 53.1995 95.1726 54.3116 94.8549 55.0266C94.1399 56.8537 81.1911 56.9332 80.5555 55.106C80.2378 54.4705 80.4761 53.3583 81.0322 52.7228C82.3827 51.134 93.1072 51.0546 94.4577 52.6434ZM92.4716 61.5407C93.266 63.6856 92.2333 64.2417 87.7846 64.2417C83.4154 64.2417 82.1444 63.5267 82.9388 61.4613C83.5743 59.7136 91.8361 59.793 92.4716 61.5407Z"
          fill="#00A6ED"/>
    <path d="M68.3216 73.0596C65.144 74.0129 61.5692 77.1111 59.9009 80.2887C58.1532 83.7047 58.471 90.5366 60.6159 93.7142C63.4758 98.004 67.13 99.99 72.0553 99.99C80.7938 99.99 86.1958 94.8263 86.1958 86.5645C86.1958 76.8728 77.5367 70.3586 68.3216 73.0596ZM77.1395 77.3494C82.2237 80.0504 84.0509 86.8823 81.0321 91.887C79.3639 94.588 75.3124 96.8124 72.1348 96.8124C67.7656 96.8124 61.9664 90.8543 61.9664 86.4851C61.9664 83.3869 64.5879 79.1765 67.6067 77.5877C70.8637 75.84 73.9619 75.7606 77.1395 77.3494Z"
          fill="#00A6ED"/>
    <path d="M73.6442 83.8635C70.8638 86.644 70.546 86.8028 69.5927 85.4524C69.0367 84.7374 67.9245 84.1019 67.2095 84.1019C66.4946 84.1019 65.9385 84.7374 65.9385 85.4524C65.9385 87.5178 68.8778 92.0459 70.1488 92.0459C71.6582 92.0459 79.6023 83.4663 79.2051 82.2747C78.5695 80.3682 76.5835 80.9242 73.6442 83.8635Z"
          fill="#00A6ED"/>
</svg>
