<svg width="100" height="94" viewBox="0 0 100 94" fill="none" xmlns="http://www.w3.org/2000/svg">
    <path d="M32.077 2.02769C31.6091 3.11958 31.2971 4.44544 31.2971 4.91339C31.2971 6.86319 28.0994 10.9968 24.9798 12.9466L21.7041 14.9744L22.25 19.6539C23.2639 29.8708 28.5674 40.8677 36.1326 48.4329C40.6562 53.0345 47.7534 57.714 50.2492 57.714C52.6669 57.714 61.558 51.4746 65.6916 46.9511C70.3711 41.6476 75.2066 32.1326 76.9224 24.6454C78.7943 16.7682 78.4043 15.0524 74.1927 12.0887C70.9171 9.7489 69.4352 7.40913 67.6414 1.32576C67.2514 0.155876 65.6916 -0.000106812 50.0152 -0.000106812H32.857L32.077 2.02769ZM64.8337 4.67941C64.8337 7.56512 67.9534 12.4786 71.073 14.6624C74.5047 17.0801 74.6607 17.7821 72.9449 24.4894C70.0592 35.7982 62.3379 46.7951 53.6808 51.7866L49.9372 53.9704L45.6476 51.1627C35.3527 44.2994 27.7875 32.3666 26.1496 20.4338C25.6817 16.9242 25.8377 16.4562 27.2415 16.0662C29.6593 15.2863 33.4809 10.6068 34.4948 7.01918L35.4307 3.89949L48.3774 3.66552C55.4746 3.58752 62.104 3.35355 63.1179 3.27556C64.3657 3.19757 64.8337 3.50953 64.8337 4.67941Z"
          fill="#00A6ED"/>
    <path d="M36.9889 6.39565C36.521 6.9416 35.8971 8.26746 35.5851 9.20336C35.2731 10.2173 33.3233 12.791 31.2175 14.9748C27.3179 18.9524 27.2399 19.1083 28.7218 24.3338C28.8778 25.1137 29.7357 25.7377 30.5936 25.7377C31.9195 25.7377 32.1534 25.2697 31.9195 22.774C31.6855 20.3562 32.0754 19.5763 34.2592 17.6265C35.6631 16.3786 37.5349 14.0389 38.3928 12.323L39.8747 9.35935H49.9356H59.9966L62.0244 12.791C63.1163 14.6628 64.9881 17.0026 66.158 18.0165C67.9518 19.5763 68.2637 20.4342 68.1078 22.774C67.8738 25.2697 68.1078 25.7377 69.4336 25.7377C70.9935 25.7377 71.3054 25.1137 72.2413 20.5902C72.6313 18.4064 72.3973 17.8605 69.6676 15.7547C68.0298 14.4288 65.768 11.6211 64.6761 9.59332L62.8043 5.84971L50.2476 5.61573C40.8885 5.45975 37.5349 5.69372 36.9889 6.39565Z"
          fill="#00A6ED"/>
    <path d="M53.6059 23.7868L49.1604 30.4942L46.5866 28.4664C40.7372 24.0208 39.4114 27.7644 45.1828 32.6779C47.2106 34.4718 49.2383 35.8756 49.6283 35.8756C50.9542 35.8756 61.1711 19.6533 60.6252 18.3274C59.7673 15.9097 57.9735 17.3135 53.6059 23.7868Z"
          fill="#00A6ED"/>
    <path d="M30.9087 29.6384C30.2068 30.7303 34.6524 38.6855 38.318 43.0531C41.8276 47.1086 47.989 51.4762 50.1728 51.4762C52.3566 51.4762 57.894 47.4206 61.7156 43.1311C65.3032 38.9975 69.8268 30.8083 69.1248 29.6384C67.955 27.7666 65.8492 29.0925 63.7434 33.1481C61.0917 38.2955 56.4121 43.755 52.7465 46.0168L50.0168 47.7326L46.1172 44.8469C42.0616 41.8832 37.85 36.6577 35.5103 31.7442C34.1844 28.9365 32.0006 27.9226 30.9087 29.6384Z"
          fill="#00A6ED"/>
    <path d="M1.03647 46.9512C-0.445381 48.4331 -0.289397 89.1449 1.19245 90.3928C1.89438 91.0167 5.01406 91.2507 10.2395 91.0947C18.5067 90.8607 18.3507 90.9387 20.1445 87.5071C20.2225 87.3511 23.9661 88.599 28.5676 90.3928C34.1831 92.5766 38.0827 93.5905 40.5784 93.5905C45.024 93.5905 71.1513 89.9248 74.6609 88.8329C76.7667 88.209 95.0948 72.6106 98.6045 68.477C100.71 65.9813 100.398 61.3018 97.9025 59.352C94.3929 56.6222 92.5211 57.2462 81.0563 64.8114C70.3714 71.9087 68.4216 72.6106 67.4857 69.6469C65.5359 63.5635 63.4301 62.6276 49.2355 61.3018C38.5506 60.3659 37.5367 60.1319 31.6873 57.1682C28.2557 55.4524 24.1221 53.8145 22.5623 53.5026C19.8325 53.0346 19.5986 52.7226 19.5986 50.4609C19.5986 49.057 19.2086 47.4972 18.6627 46.9512C17.4148 45.7034 2.28434 45.7034 1.03647 46.9512ZM16.4789 55.7643C16.4789 61.0678 16.6349 61.6137 18.0387 61.6137C19.2866 61.6137 19.5986 61.0678 19.5986 59.196C19.5986 56.9342 19.6766 56.8562 22.1723 57.3242C23.4982 57.6361 27.3978 59.274 30.6734 60.9118C36.3668 63.7975 37.3807 64.0315 48.5336 65.0454C58.1266 65.9033 60.5444 66.3712 61.7143 67.5411C65.1459 71.0508 64.6 71.2847 50.0934 72.1426C39.4865 72.7666 36.2109 72.6886 35.119 71.9867C33.5591 70.8168 31.2974 71.4407 31.2974 72.9226C31.2974 73.3905 31.9993 74.4824 32.8572 75.2623C34.3391 76.6662 35.353 76.6662 53.7591 75.7303L73.0231 74.7164L82.9281 68.1651C88.4655 64.5774 93.379 61.6137 94.003 61.6137C95.6408 61.6137 97.0446 63.7195 96.2647 64.9674C95.2508 66.7612 76.4548 83.4515 74.037 84.6994C72.8671 85.3233 64.6 86.8831 55.7089 88.131L39.4865 90.4708L29.7375 86.7272L19.9885 82.9835L19.7546 73.8585C19.5986 65.3573 19.4426 64.7334 18.0387 64.7334C16.5569 64.7334 16.4789 65.2794 16.4789 76.0422V87.3511H9.84956H3.22024V68.633V49.9149H9.84956H16.4789V55.7643Z"
          fill="#00A6ED"/>
    <path d="M5.55991 76.4311C2.20626 79.7848 4.77999 85.7902 9.6155 85.7902C14.061 85.7902 16.4008 80.4867 13.6711 76.5871C12.1112 74.3253 7.74369 74.2473 5.55991 76.4311ZM10.8634 80.0967C10.7074 80.8767 10.0835 81.5006 9.45951 81.5006C8.83558 81.5006 8.21164 80.8767 8.05566 80.0967C7.89967 79.1608 8.28963 78.7709 9.45951 78.7709C10.6294 78.7709 11.0194 79.1608 10.8634 80.0967Z"
          fill="#00A6ED"/>
</svg>
