<svg width="100" height="100" viewBox="0 0 100 100" fill="none" xmlns="http://www.w3.org/2000/svg">
<path d="M8.47331 3.89815C-1.85005 13.978 -2.91431 26.5777 6.23836 30.5867C9.21829 31.9613 9.21829 32.1904 7.83475 35.0539C6.13193 38.7193 5.91908 48.6846 7.51547 53.2663C9.00544 57.619 13.5818 62.7734 17.7324 64.6061C19.7545 65.5225 24.863 66.2097 29.865 66.2097C37.6341 66.2097 38.3791 66.4388 37.7406 68.157C37.3149 69.3024 36.6763 73.7696 36.4634 78.2368C35.8249 88.202 37.4213 90.8365 47.6382 96.2201C54.5559 99.8855 55.0881 100 68.0721 100C81.0561 100 81.5882 99.8855 88.5059 96.2201C97.765 91.4093 100 88.3166 100 80.6422C100 77.435 99.4679 72.9678 98.8293 70.7915C98.1907 68.6151 97.765 63.117 97.765 58.5353C97.9779 52.2354 97.4458 49.1428 95.7429 45.5919C93.0823 39.9793 91.1666 39.7502 84.9939 44.7901C80.4175 48.57 80.2047 48.57 71.052 48.1119L61.6865 47.6537V43.072C61.6865 40.6666 60.9415 37.1157 60.0901 35.3976C58.6001 32.1904 58.6001 32.0758 61.7929 30.7013C70.9456 26.5777 69.9878 13.978 59.558 3.89815C55.4073 -0.110867 54.7688 -0.339954 50.086 0.232763C47.4254 0.576393 44.5519 0.80548 43.9133 0.80548C43.1683 0.690936 38.6984 0.690936 34.0156 0.690936C29.3329 0.690936 24.863 0.690936 24.2244 0.80548C23.4794 0.80548 20.6059 0.576393 17.9453 0.232763C13.2625 -0.339954 12.6239 -0.110867 8.47331 3.89815ZM16.2424 8.02171C12.8368 12.1453 10.6018 17.6433 10.6018 22.1105C10.6018 25.8905 10.389 26.1196 8.36688 24.9741C3.68412 22.2251 4.42911 16.9561 10.4954 10.0835C12.7304 7.56354 15.391 5.50176 16.4553 5.50176C18.2645 5.50176 18.2645 5.73084 16.2424 8.02171ZM43.594 8.02171C49.5539 12.4889 51.3631 16.0397 52.0017 25.2032C52.4274 30.3577 53.3852 34.7103 54.5559 36.4285C57.0037 40.2084 56.8973 48.341 54.3431 52.9227C51.6824 57.5044 47.5318 60.0244 41.2526 61.0553L36.1442 61.8571V57.8481C36.1442 54.8699 36.9956 52.9227 39.337 50.4027C42.9555 46.5083 43.7004 40.552 40.8269 39.4066C38.6984 38.4902 29.3329 38.4902 27.2044 39.4066C24.3308 40.552 25.0758 46.5083 28.6943 50.4027C31.0357 52.9227 31.8871 54.8699 31.8871 57.8481V61.8571L26.8851 61.0553C20.0738 60.0244 16.2424 57.7335 13.7946 53.2663C11.0275 48.4555 11.0275 40.3229 13.7946 35.8557C15.2846 33.3358 15.9232 30.4722 15.9232 25.4323C15.9232 17.4143 18.371 12.4889 24.3308 8.13625C29.3329 4.47087 38.6984 4.47087 43.594 8.02171ZM57.5359 10.0835C63.6022 16.9561 64.3472 22.2251 59.6644 24.9741C57.6423 26.1196 57.4294 25.8905 57.4294 22.1105C57.4294 17.6433 55.1945 12.1453 51.7888 8.02171C49.7667 5.73084 49.7667 5.50176 51.576 5.50176C52.6403 5.50176 55.3009 7.56354 57.5359 10.0835ZM35.2928 45.821C34.3349 46.8519 33.6964 46.8519 32.7385 45.821C31.7807 44.7901 31.9935 44.4465 34.0156 44.4465C36.0377 44.4465 36.2506 44.7901 35.2928 45.821ZM92.1244 59.3371C91.8052 63.4607 92.1244 67.3552 93.0823 70.2187C93.9337 72.7387 94.5723 76.9768 94.6787 79.6113C94.6787 83.7348 94.1465 84.8803 90.8473 87.7439C85.526 92.4401 77.8633 94.8456 68.0721 94.8456C58.2809 94.8456 50.6182 92.4401 45.2968 87.7439C41.9976 84.8803 41.4655 83.7348 41.5719 79.6113C41.6783 71.0205 43.594 67.1261 48.5961 65.2934C51.4696 64.377 54.6624 61.8571 57.2166 58.7644C61.7929 53.1518 64.2407 52.5791 76.0541 54.0681C82.2268 54.8699 82.6525 54.7554 86.6967 51.3191L90.8473 47.7682L91.8052 50.4027C92.3373 51.8918 92.4437 55.9008 92.1244 59.3371Z" fill="white"/>
<path d="M23.373 30.7012C23.373 33.7939 23.6923 34.1375 26.5658 34.1375C29.4394 34.1375 29.7586 33.7939 29.7586 30.7012C29.7586 27.6085 29.4394 27.2649 26.5658 27.2649C23.6923 27.2649 23.373 27.6085 23.373 30.7012Z" fill="white"/>
<path d="M38.2727 30.7012C38.2727 33.7939 38.592 34.1375 41.4655 34.1375C44.339 34.1375 44.6583 33.7939 44.6583 30.7012C44.6583 27.6085 44.339 27.2649 41.4655 27.2649C38.592 27.2649 38.2727 27.6085 38.2727 30.7012Z" fill="white"/>
<path d="M57.4294 71.9369C57.4294 75.0295 57.7487 75.3732 60.6222 75.3732C63.4957 75.3732 63.815 75.0295 63.815 71.9369C63.815 68.8442 63.4957 68.5006 60.6222 68.5006C57.7487 68.5006 57.4294 68.8442 57.4294 71.9369Z" fill="white"/>
<path d="M72.3291 71.9369C72.3291 75.0295 72.6484 75.3732 75.5219 75.3732C78.3954 75.3732 78.7147 75.0295 78.7147 71.9369C78.7147 68.8442 78.3954 68.5006 75.5219 68.5006C72.6484 68.5006 72.3291 68.8442 72.3291 71.9369Z" fill="white"/>
<path d="M62.1122 79.2675C61.7929 80.1839 62.0058 82.0166 62.7508 83.2765C63.4958 84.8802 63.4958 85.682 62.7508 85.682C62.2187 85.682 61.6865 86.8274 61.6865 88.3165C61.6865 90.8364 62.1122 91.0655 68.0721 91.0655C74.032 91.0655 74.4577 90.8364 74.4577 88.3165C74.4577 86.8274 73.9256 85.682 73.3934 85.682C72.6484 85.682 72.6484 84.8802 73.3934 83.2765C75.4155 79.2675 74.032 77.6639 68.0721 77.6639C64.3472 77.6639 62.5379 78.2366 62.1122 79.2675Z" fill="white"/>
</svg>
