<svg width="100" height="100" viewBox="0 0 100 100" fill="none" xmlns="http://www.w3.org/2000/svg">
<path d="M42.8193 1.80387C37.4219 5.41172 37.4219 5.33329 37.5783 40.3921L37.813 71.7647L39.925 72C41.5677 72.2353 43.6015 71.1372 48.2949 67.5294L54.5527 62.7451H72.7786C93.1947 62.7451 94.8374 62.3529 98.2009 57.3333C100 54.7451 100 54.2745 100 31.4509C100 9.64701 99.9218 8.07838 98.4356 5.64701C97.5752 4.23524 95.776 2.43133 94.368 1.56858C91.9431 0.0783844 90.3787 -4.57764e-05 68.6328 -4.57764e-05C45.8699 -4.57764e-05 45.4006 -4.57764e-05 42.8193 1.80387ZM90.0658 7.13721C93.4294 8.70584 93.7422 10.6666 93.7422 31.7647V51.6862L91.8649 53.8823L89.9876 56.0784L70.5101 56.4705L51.0326 56.8627L47.5908 59.4509L44.0708 62.0392L43.8362 38.2745C43.7579 25.1764 43.8362 13.4117 44.0708 12C44.3055 10.5882 45.4006 8.78427 46.574 7.84309C48.4513 6.3529 49.6246 6.27446 68.3981 6.27446C81.2266 6.27446 88.8924 6.58819 90.0658 7.13721Z" fill="white"/>
<path d="M50.485 16.1568C49.6245 17.098 49.8592 20 50.8761 21.0196C51.9712 22.1176 84.8247 22.3529 86.5456 21.2549C87.1714 20.8627 87.4843 19.6078 87.3279 18.3529L87.0932 16.0784L69.0238 15.8431C59.0895 15.7647 50.7979 15.9216 50.485 16.1568Z" fill="white"/>
<path d="M50.485 28.7058C49.5463 29.647 49.8592 32.7058 51.0326 33.647C51.7366 34.2745 57.3686 34.5098 69.5714 34.3529L87.0932 34.1176V31.3725V28.6274L69.0238 28.3921C59.0895 28.3137 50.7979 28.4706 50.485 28.7058Z" fill="white"/>
<path d="M50.485 41.2549C49.5463 42.196 49.8592 45.2549 51.0326 46.196C51.7366 46.8235 55.3348 47.0588 61.7491 46.9019L71.4487 46.6666V43.9215V41.1764L61.2015 40.9411C55.6477 40.8627 50.7979 41.0196 50.485 41.2549Z" fill="white"/>
<path d="M11.843 48.3137C6.05453 51.2157 3.00385 56.1569 3.00385 62.7451C3.00385 67.2157 4.41186 71.0588 6.75854 73.1765L8.32299 74.6667L5.27231 77.7255C0.813614 82.1961 -0.203281 85.3333 0.0313869 93.3333L0.266055 100H18.6484H37.0307L37.2654 94.1961C37.5783 86.7451 35.9356 81.8824 31.868 77.8039C29.1302 74.9804 28.9738 74.5882 30.1471 73.6471C32.2591 71.8431 34.2929 66.5098 34.2929 62.7451C34.2929 58.6667 32.1809 53.7255 29.5213 51.2157C25.1409 47.2157 16.8493 45.8824 11.843 48.3137ZM22.1684 54.5882C26.236 56.4706 27.7222 59.5294 27.4093 64.8627C27.1747 67.2941 22.9506 71.2157 19.9 71.8431C15.0501 72.7059 9.26167 67.7647 9.26167 62.7451C9.26167 59.8431 11.843 56.1569 14.8155 54.6667C18.1008 53.0196 18.9613 53.0196 22.1684 54.5882ZM24.124 80.3922C27.8787 82.3529 31.0076 87.6863 31.164 92.3137C31.164 94.1176 31.0858 94.1176 18.6484 94.1176H6.13276V91.6078C6.13276 88.2353 8.87055 82.8235 11.4519 81.098C15.4413 78.4314 19.7435 78.1961 24.124 80.3922Z" fill="white"/>
</svg>
