<svg width="100" height="109" viewBox="0 0 100 109" fill="none" xmlns="http://www.w3.org/2000/svg">
<path d="M3.49443 2.37444C0.526378 5.17288 -0.321637 8.39534 0.102371 15.6883C0.356775 20.098 0.61118 20.7764 2.05281 20.7764C3.57923 20.7764 3.74884 20.098 4.00324 15.2643C4.42725 2.96804 3.49443 3.39205 33.7686 3.39205C57.3434 3.39205 57.513 3.39205 59.8027 5.34248C61.5835 6.86891 62.1771 8.31054 62.5163 11.7026C62.7707 14.6707 62.6011 16.1123 61.9227 16.1123C61.4139 16.1123 60.9899 14.5859 60.9899 12.381C60.9899 10.0914 60.3963 7.97134 59.5482 6.86891C58.1914 5.17288 57.3434 5.00328 51.6617 5.25768C45.7256 5.51208 45.2168 5.68169 44.1992 7.80173L43.0968 10.1762H33.175H23.1684L22.2356 7.63213C21.3028 5.08808 21.218 5.08808 14.9426 5.08808C10.2786 5.08808 8.15852 5.42728 7.2257 6.44491C6.03848 7.63213 5.86888 13.1442 5.86888 54.273C5.86888 95.4017 6.03848 100.914 7.2257 102.101C8.32812 103.288 11.8898 103.458 33.4294 103.458H58.4458L59.7178 101.423C60.5659 100.151 60.9899 98.0306 60.8203 95.6561C60.6507 92.6881 60.2267 92.0097 58.8698 92.0097C57.513 92.0097 57.089 92.6881 56.9194 95.6561L56.665 99.2178L33.175 99.0482L9.68495 98.7938V54.273V9.75217L14.0098 9.49776C17.9107 9.24335 18.3347 9.41296 19.2675 11.4482L20.2851 13.5682H33.2598H46.3192L47.252 11.4482C48.1 9.58257 48.7785 9.32816 52.5097 9.32816H56.7498V12.6354V16.0275L37.1606 16.2819C17.7411 16.5363 17.5715 16.5363 15.9603 18.5715C14.4338 20.4372 14.349 22.1332 14.349 43.6728C14.349 65.7212 14.4338 66.8236 16.1299 69.0284L17.8259 71.2333H37.2454H56.665L56.9194 79.5438C57.1738 87.0912 57.3434 87.7696 58.8698 87.7696C60.3963 87.7696 60.5659 87.0912 60.8203 79.459C60.9899 74.5405 61.4139 71.2333 61.9227 71.2333C62.5163 71.2333 62.6859 76.3214 62.5163 86.1584L62.2619 101.083L59.8875 103.119L57.513 105.154H33.7686C14.1794 105.154 9.60014 104.899 7.56491 103.882C6.12328 103.119 4.93606 102.44 4.85126 102.355C4.76646 102.271 4.42725 84.8015 4.17284 63.6011C3.74884 25.6949 3.74884 25.0164 2.05281 25.0164C0.356775 25.0164 0.356775 25.6949 0.102371 61.4811C0.0175693 81.5791 0.102371 99.2178 0.356775 100.829C0.695982 102.525 2.05281 104.815 3.49443 106.172L6.03848 108.546H33.175H60.3115L63.1947 105.663L66.078 102.779V87.0064V71.2333H81.2574H96.5217L98.2178 69.0284C99.9138 66.8236 99.9986 65.7212 99.9986 43.6728C99.9986 15.6035 100.338 16.5363 90.5008 16.5363C84.7343 16.5363 84.3103 16.7059 84.0559 18.4019C83.8015 20.1828 84.1407 20.2676 89.568 20.522L95.3345 20.7764V43.6728V66.5692H57.1738C21.5572 66.5692 19.0131 66.4844 18.7587 65.0428C18.5043 63.7707 19.3523 63.6011 27.4933 63.6011C36.8214 63.6011 40.7223 62.5835 41.8247 59.7851C42.8423 57.0714 42.3335 52.7465 40.7223 50.7961C39.1959 48.9305 38.4327 48.7609 28.8501 48.5065L18.5891 48.1673L18.7587 34.5142L19.0131 20.7764L49.1177 20.522C66.502 20.4372 79.4766 20.0132 79.9854 19.5043C80.4942 18.9955 80.3246 18.2323 79.6462 17.3843C78.883 16.4515 76.9326 16.1123 72.3533 16.1123H66.078V10.9394C66.078 6.1905 65.8236 5.51208 63.1947 2.88324L60.3115 -1.52588e-05H33.175H6.03848L3.49443 2.37444ZM36.7366 53.0858C38.5175 53.7642 38.5175 58.1738 36.7366 58.8523C35.9734 59.1067 31.6485 59.3611 26.9845 59.3611H18.5891V55.969V52.5769H26.9845C31.6485 52.5769 35.9734 52.8313 36.7366 53.0858Z" fill="white"/>
<path d="M24.5253 26.2036C24.1013 27.1365 23.6772 29.8501 23.6772 32.2246C23.6772 39.5175 24.1013 39.8567 33.8534 39.8567C43.6056 39.8567 44.0296 39.5175 44.0296 32.2246C44.0296 24.9316 43.6056 24.5924 33.8534 24.5924C26.3909 24.5924 25.3733 24.762 24.5253 26.2036ZM39.7895 32.2246V35.6166H33.8534H27.9173V32.2246V28.8325H33.8534H39.7895V32.2246Z" fill="white"/>
<path d="M53.3577 31.8005C53.3577 34.5142 53.6121 34.8534 55.3081 34.599C56.7497 34.4294 57.1737 33.751 57.1737 31.8005C57.1737 29.8501 56.7497 29.1717 55.3081 29.0021C53.6121 28.7477 53.3577 29.0869 53.3577 31.8005Z" fill="white"/>
<path d="M61.8379 31.8006C61.8379 34.175 62.1771 34.7686 63.5339 34.7686C64.8907 34.7686 65.23 34.175 65.23 31.8006C65.23 29.4261 64.8907 28.8325 63.5339 28.8325C62.1771 28.8325 61.8379 29.4261 61.8379 31.8006Z" fill="white"/>
<path d="M67.7739 31.8006C67.7739 34.175 68.1131 34.7686 69.3852 34.7686C70.2332 34.7686 71.2508 34.175 71.5052 33.4118C72.3532 31.207 71.2508 28.8325 69.3852 28.8325C68.1131 28.8325 67.7739 29.4261 67.7739 31.8006Z" fill="white"/>
<path d="M79.6462 31.8005C79.6462 34.5142 79.9006 34.8534 81.5967 34.599C83.0383 34.4294 83.4623 33.751 83.4623 31.8005C83.4623 29.8501 83.0383 29.1717 81.5967 29.0021C79.9006 28.7477 79.6462 29.0869 79.6462 31.8005Z" fill="white"/>
<path d="M85.5823 31.8006C85.5823 34.175 85.9215 34.7686 87.2783 34.7686C88.6351 34.7686 88.9743 34.175 88.9743 31.8006C88.9743 29.4261 88.6351 28.8325 87.2783 28.8325C85.9215 28.8325 85.5823 29.4261 85.5823 31.8006Z" fill="white"/>
<path d="M59.7179 48.5065C59.4635 49.1849 59.2939 53.0009 59.4635 56.9018C59.6331 62.5835 59.9723 64.0251 60.99 64.0251C61.838 64.0251 62.3468 63.0075 62.5164 61.2267C62.7708 59.1915 63.1948 58.513 64.4668 58.513C65.3996 58.513 67.0109 58.089 67.9437 57.5802C69.5549 56.7322 69.6397 56.817 69.0461 58.1738C67.6893 61.5659 67.6045 62.9227 68.6221 63.6011C70.0637 64.534 72.0142 63.6859 72.0142 62.2443C72.0142 60.3787 76.5086 60.8027 77.7807 62.7531C78.8831 64.6188 81.3423 64.1947 81.3423 62.0747C81.3423 61.3963 80.3247 58.0042 79.0527 54.6122C75.8302 45.9624 73.9646 45.5384 70.9965 52.8313L69.5549 56.393V53.3402C69.4701 49.6089 68.1133 48.3369 63.6188 47.7432C61.0748 47.404 60.0571 47.5736 59.7179 48.5065ZM65.4844 52.3225C66.1629 52.9161 64.5516 55.121 63.4492 55.121C63.0252 55.121 62.686 54.3578 62.686 53.425C62.686 51.8137 64.382 51.1353 65.4844 52.3225Z" fill="white"/>
<path d="M80.2398 48.0824C79.2222 49.1001 79.6462 51.3049 81.3422 53.4249C82.3598 54.697 83.0382 56.9018 83.0382 59.0218C83.0382 62.6683 84.2255 64.6187 86.0911 63.8555C86.8543 63.6011 87.2783 62.1595 87.2783 60.0395C87.2783 57.9194 88.0415 55.6298 89.3984 53.5945C91.8576 49.9481 92.0272 48.6761 90.0768 47.9976C89.0592 47.5736 88.1263 48.0824 87.0239 49.6089L85.4127 51.7289L83.7167 49.6089C82.0206 47.404 81.1726 47.0648 80.2398 48.0824Z" fill="white"/>
<path d="M20.285 78.8654C17.741 81.4095 17.9954 85.904 20.8786 88.1936C23.0835 89.8896 24.0163 89.9744 34.0229 89.72C42.927 89.5504 45.0471 89.2112 46.3191 88.024C48.2695 86.0736 48.1847 81.0703 46.1495 78.8654C44.7927 77.339 43.6054 77.1694 33.2597 77.1694C23.0835 77.1694 21.8115 77.339 20.285 78.8654ZM42.7574 81.7487C44.1991 82.7663 44.1991 83.1055 43.2662 84.2927C42.2486 85.48 40.5526 85.6496 32.666 85.48C24.2707 85.2256 23.2531 85.0559 22.9987 83.6143C22.8291 82.7663 23.1683 81.7487 23.8467 81.3247C25.7971 80.0527 40.9766 80.3919 42.7574 81.7487Z" fill="white"/>
</svg>
