<svg width="101" height="100" viewBox="0 0 101 100" fill="none" xmlns="http://www.w3.org/2000/svg">
<g clip-path="url(#clip0_1869_658)">
<path d="M22.375 5.46875C22.375 10.7812 22.4531 10.9375 24.3281 10.9375C26.2031 10.9375 26.2812 10.7812 26.2812 5.46875C26.2812 0.15625 26.2031 0 24.3281 0C22.4531 0 22.375 0.15625 22.375 5.46875Z" fill="white"/>
<path d="M74.7188 5.46875C74.7188 10.7812 74.7969 10.9375 76.6719 10.9375C78.5469 10.9375 78.625 10.7812 78.625 5.46875C78.625 0.15625 78.5469 0 76.6719 0C74.7969 0 74.7188 0.15625 74.7188 5.46875Z" fill="white"/>
<path d="M4.17185 3.67188C2.7656 5 4.09372 7.1875 9.09373 12.0313C14.5625 17.3438 15.7344 17.8125 17.2187 15.3906C17.9219 14.2969 17.0625 13.125 12.6094 8.59375C7.60935 3.51563 5.49997 2.34375 4.17185 3.67188Z" fill="white"/>
<path d="M88.3906 8.59375C83.9375 13.125 83.0781 14.2969 83.7812 15.3906C85.2656 17.8125 86.4375 17.3438 91.9844 12.0313C95.8125 8.28125 97.375 6.25 97.2187 5.07813C96.75 1.79688 94.0156 2.89063 88.3906 8.59375Z" fill="white"/>
<path d="M58.7031 11.0937C57.8438 11.5625 55.6562 13.3594 53.8594 15.0781L50.5781 18.2031L47.6094 15.7031C42.9219 11.7969 38 12.7344 35.2656 18.0469C34.5625 19.2969 33.625 20.3125 33 20.3125C31.5938 20.3125 28.625 23.6719 28.625 25.2344C28.625 25.9375 28.0781 26.5625 27.375 26.5625C26.75 26.5625 25.1094 27.6562 23.7812 28.9062C21.9062 30.8594 21.5156 31.7969 21.75 33.75C22.0625 35.7031 21.75 36.5625 20.1094 37.9687C17.2969 40.3906 17.2969 45.1562 20.2656 48.2031L22.375 50.4687L11.4375 61.3281C3.78125 68.9062 0.5 72.8125 0.5 73.9844C0.5 77.7344 3.70312 76.0937 11.4375 68.3594L18.8594 60.9375L25.5 67.5781L32.0625 74.2187L20.5781 85.7812C12.2188 94.2969 9.17188 97.8125 9.5625 98.75C10.7344 101.875 13.4688 99.9219 29.1719 84.2187C44.4844 68.9062 45.1094 68.4375 46.75 69.5312C51.125 72.2656 54.1719 73.4375 57.1406 73.4375C60.1875 73.4375 60.7344 73.9062 73.5469 86.7187C82.9219 96.0937 87.2969 100 88.5469 100C92.2969 100 90.6562 96.7969 82.7656 88.9062C76.8281 82.8906 75.3438 81.0937 76.125 80.3125C78.625 77.8125 75.9688 74.6094 72.9219 76.4844C71.5938 77.3437 71.125 77.2656 69.7188 75.8594L68.0781 74.2187L75.7344 66.6406L83.3125 58.9844L85.0312 60.7812C86.3594 62.1094 86.5938 62.6562 85.8125 63.4375C83.3125 65.9375 85.9688 69.1406 89.0156 67.2656C90.3438 66.4062 90.8906 66.6406 93.7812 69.4531C97.4531 73.0469 100.5 73.75 100.5 70.9375C100.5 69.7656 98.0781 66.7187 93.3125 61.9531C86.4375 55.0781 86.0469 54.4531 85.1094 49.9219L84.1719 45.0781L86.4375 42.4219C88.0781 40.625 88.7812 38.9844 88.7812 37.1875C88.7812 34.2187 86.2031 30.4687 84.1719 30.4687C83.3906 30.4687 82.375 29.375 81.6719 27.8906C81.0469 26.4844 79.4844 24.9219 78.0781 24.2187C76.6719 23.5937 75.5 22.6562 75.5 22.1875C75.5 20.5469 72.2969 17.1875 70.7344 17.1875C69.7969 17.1875 69.0938 16.4844 68.7812 15.2344C67.7656 11.1719 62.4531 8.98436 58.7031 11.0937ZM63.7812 16.0156C64.6406 17.0312 64.3281 17.7344 61.9844 20.1562C56.75 25.5469 59.1719 29.9219 64.4844 24.6875C67.5312 21.7187 69.7969 21.0937 70.5781 23.125C70.8906 23.9062 69.6406 25.7031 66.9062 28.5156C62.6875 32.8125 61.9844 35.3125 64.9531 35.7812C65.9688 35.9375 67.8438 34.6094 70.4219 32.0312C74.5625 27.8125 75.5 27.4219 77.0625 29.375C77.9219 30.3906 77.5312 31.1719 74.0938 34.6094C69.9531 38.75 68.9375 41.6406 71.2812 42.5C72.0625 42.8125 73.9375 41.5625 76.5938 39.0625C80.8906 35 83 34.2187 83.8594 36.4062C84.5625 38.2812 65.3438 57.2656 60.2656 59.7656C58 60.8594 53.7812 62.0312 50.2656 62.5C46.9062 62.8906 43.8594 63.4375 43.5469 63.5937C43.2344 63.8281 40.5781 61.6406 37.6875 58.6719C32.5312 53.4375 32.4531 53.4375 34.0938 51.9531C34.9531 51.1719 35.6562 50.0781 35.6562 49.5312C35.6562 48.9844 36.4375 48.0469 37.4531 47.5781C40.2656 46.0937 42.6875 43.5937 42.6875 42.0312C42.6875 41.25 43.2344 40.625 44.0156 40.625C45.5781 40.625 48.9375 37.6562 48.9375 36.25C48.9375 35.625 49.9531 34.6875 51.2031 33.9844C55.5781 31.7969 57.2188 27.0312 55.0312 23.4375C54.1719 22.1094 54.4844 21.4844 57.5312 18.3594C61.2812 14.5312 62.2969 14.2187 63.7812 16.0156ZM47.1406 22.0312C51.5938 26.4062 51.9844 27.3437 50.0312 28.9844C49.0156 29.8437 48.1562 29.2969 44.0938 25.1562C39.9531 21.0937 39.4062 20.2344 40.2656 19.2187C41.8281 17.3437 42.6875 17.6562 47.1406 22.0312ZM41.4375 29.6875C44.4844 32.9687 44.9531 33.9062 44.25 34.7656C42.7656 36.5625 41.8281 36.1719 37.4531 31.875C33.1562 27.6562 32.6875 26.7187 34.25 25.1562C35.4219 23.9844 36.9844 24.9219 41.4375 29.6875ZM33.8594 35.3125C38.3125 39.6875 38.7031 40.625 36.75 42.2656C35.7344 43.125 34.875 42.5781 30.8125 38.4375C26.6719 34.375 26.125 33.5156 26.9844 32.5C28.5469 30.625 29.4062 30.9375 33.8594 35.3125ZM28.9375 43.8281C31.2812 46.3281 31.6719 47.1875 30.8906 48.125C29.5625 49.7656 28.625 49.5312 25.7344 46.7187C23.3125 44.375 22.5312 42.2656 23.7031 41.1719C24.7969 40 26.2031 40.7812 28.9375 43.8281ZM80.9688 52.7344C80.9688 53.75 77.8438 57.4219 72.7656 62.5C66.3594 68.9062 64.4062 70.4687 63.625 69.6875C63.0781 69.1406 61.0469 68.75 59.0156 68.75C52.5312 68.75 52.1406 67.8906 57.6875 66.0156C63.9375 63.9062 68.1562 61.0156 74.7188 54.375C79.7188 49.2187 80.8906 48.9062 80.9688 52.7344ZM37.375 68.9062L35.6562 70.7031L29.0156 64.0625L22.375 57.5L24.0938 55.7031L25.8125 53.8281L32.4531 60.5469L39.1719 67.1875L37.375 68.9062Z" fill="white"/>
<path d="M0.5 23.8281C0.5 25.7031 0.65625 25.7812 5.96875 25.7812C11.2812 25.7812 11.4375 25.7031 11.4375 23.8281C11.4375 21.9531 11.2812 21.875 5.96875 21.875C0.65625 21.875 0.5 21.9531 0.5 23.8281Z" fill="white"/>
<path d="M89.5625 23.8281C89.5625 25.7031 89.7188 25.7812 95.0312 25.7812C100.344 25.7812 100.5 25.7031 100.5 23.8281C100.5 21.9531 100.344 21.875 95.0312 21.875C89.7188 21.875 89.5625 21.9531 89.5625 23.8281Z" fill="white"/>
<path d="M78.9376 70.625C78.1563 72.6562 79.2501 74.375 81.1251 74.0625C82.4532 73.9062 82.9219 73.2812 82.9219 71.875C82.9219 70.4687 82.4532 69.8437 81.1251 69.6875C80.1094 69.5312 79.1719 69.9219 78.9376 70.625Z" fill="white"/>
</g>
<defs>
<clipPath id="clip0_1869_658">
<rect width="100" height="100" fill="white" transform="translate(0.5)"/>
</clipPath>
</defs>
</svg>
