<svg width="51" height="100" viewBox="0 0 51 100" fill="none" xmlns="http://www.w3.org/2000/svg">
<path d="M16.5417 3.69573C13.4167 6.9566 13 8.04356 13 13.0436C13 18.0436 13.4167 19.1305 16.5417 22.3914C19.6667 25.6523 20.7083 26.087 25.5 26.087C30.2917 26.087 31.3333 25.6523 34.4583 22.3914C37.5833 19.1305 38 18.0436 38 13.0436C38 8.04356 37.5833 6.9566 34.4583 3.69573C31.3333 0.434862 30.2917 8.01086e-05 25.5 8.01086e-05C20.7083 8.01086e-05 19.6667 0.434862 16.5417 3.69573ZM30.7083 7.60878C35.1875 12.2827 31.8542 20.6523 25.5 20.6523C21.5417 20.6523 18.2083 17.174 18.2083 13.0436C18.2083 8.91312 21.5417 5.43486 25.5 5.43486C27.2708 5.43486 29.5625 6.41312 30.7083 7.60878Z" fill="white"/>
<path d="M14.875 30.4348C12.7917 31.6304 9.875 34.2391 8.41667 36.1957C5.70833 39.8913 0.5 56.8478 0.5 61.9565C0.5 65 2.79167 68.4783 4.77083 68.4783C5.39583 68.4783 5.70833 70.1087 5.5 72.0652C5.1875 75.5435 5.1875 75.5435 10.1875 75.8696L15.0833 76.1957V86.8478C15.0833 93.587 15.5 97.8261 16.3333 98.6957C18 100.435 33 100.435 34.6667 98.6957C35.5 97.8261 35.9167 93.587 35.9167 86.8478V76.1957L40.9167 75.8696C45.8125 75.5435 45.8125 75.5435 45.5 71.9565C45.2917 70.1087 45.6042 68.4783 46.2292 68.4783C48.2083 68.4783 50.5 65 50.5 61.9565C50.5 56.8478 45.2917 39.8913 42.5833 36.087C41.125 34.2391 38.1042 31.6304 35.9167 30.4348C30.3958 27.5 20.1875 27.5 14.875 30.4348ZM35.1875 36.413C38.625 39.0217 41.3333 44.8913 43.7292 54.6739C44.9792 59.6739 45.2917 62.3913 44.5625 63.1522C43.8333 63.913 42.6875 60.8696 40.9167 54.1304C38.7292 45.6522 38 43.913 36.125 43.6957C34.3542 43.3696 33.8333 43.913 33.8333 45.8696C33.8333 47.9348 37.1667 61.7391 39.5625 69.5652C40.1875 71.6304 39.6667 71.7391 25.5 71.7391C11.3333 71.7391 10.8125 71.6304 11.4375 69.5652C13.8333 61.7391 17.1667 47.9348 17.1667 45.8696C17.1667 43.913 16.6458 43.3696 14.875 43.6957C13 43.913 12.2708 45.6522 10.0833 54.0217C8.625 59.6739 7.0625 63.8043 6.54167 63.4783C5.39583 62.7174 5.91667 59.1304 8.83333 48.913C10.9167 41.6304 14.4583 36.6304 18.7292 34.6739C22.2708 33.0435 32.0625 34.1304 35.1875 36.413ZM23.2083 85C23 92.1739 22.5833 94.0217 21.3333 94.0217C20.0833 94.0217 19.6667 92.1739 19.4583 85C19.1458 76.6304 19.25 76.087 21.3333 76.087C23.4167 76.087 23.5208 76.6304 23.2083 85ZM31.5417 85C31.3333 92.1739 30.9167 94.0217 29.6667 94.0217C28.4167 94.0217 28 92.1739 27.7917 85C27.4792 76.6304 27.5833 76.087 29.6667 76.087C31.75 76.087 31.8542 76.6304 31.5417 85Z" fill="white"/>
</svg>
